<?xml version="1.0" standalone="no"?>
<!DOCTYPE svg PUBLIC "-//W3C//DTD SVG 20010904//EN"
 "http://www.w3.org/TR/2001/REC-SVG-20010904/DTD/svg10.dtd">
<svg version="1.0" xmlns="http://www.w3.org/2000/svg"
 width="200.000000pt" height="200.000000pt" viewBox="0 0 200.000000 200.000000"
 preserveAspectRatio="xMidYMid meet">
<metadata>
Created by potrace 1.14, written by Peter Selinger 2001-2017
</metadata>
<g transform="translate(0.000000,200.000000) scale(0.100000,-0.100000)"
fill="#000000" stroke="none">
<path d="M1135 1765 c-14 -13 -25 -31 -25 -40 0 -20 -1 -20 -160 20 -76 19
-150 35 -164 35 -26 0 -66 -41 -66 -68 0 -12 -11 -13 -62 -8 -216 20 -232 19
-254 -6 -14 -15 -24 -43 -28 -82 -4 -33 -8 -62 -11 -64 -2 -2 -72 -16 -154
-30 -161 -27 -191 -41 -191 -88 0 -41 200 -1175 211 -1195 5 -10 21 -22 35
-25 15 -4 197 23 441 66 470 81 442 81 584 10 86 -44 127 -50 152 -22 29 32
537 1075 537 1102 0 15 -8 34 -17 42 -31 27 -755 378 -780 378 -13 0 -35 -11
-48 -25z m433 -197 c273 -133 372 -186 372 -199 0 -9 -118 -256 -262 -548
-199 -404 -266 -531 -279 -531 -28 0 -748 357 -755 374 -5 13 490 1037 519
1074 5 6 15 12 21 12 6 0 179 -81 384 -182z m-630 141 c70 -18 130 -35 135
-39 4 -3 -101 -225 -233 -493 -132 -268 -240 -494 -240 -503 0 -40 30 -60 224
-156 110 -54 192 -96 181 -94 -385 95 -518 131 -522 143 -5 11 226 958 273
1121 12 40 20 52 35 52 11 0 77 -14 147 -31z m-277 -45 l47 -6 -134 -531 c-74
-293 -134 -542 -134 -554 0 -42 31 -57 213 -102 97 -24 176 -46 174 -48 -4 -4
-456 27 -474 32 -8 3 -13 23 -13 52 0 81 79 1154 86 1165 6 9 117 6 235 -8z
m-296 -211 c-11 -110 -65 -898 -65 -950 0 -85 3 -86 301 -106 427 -29 423 -22
44 -88 -351 -62 -370 -64 -380 -49 -7 12 -205 1140 -205 1170 0 11 6 23 12 25
11 4 263 51 291 54 4 1 5 -25 2 -56z"/>
<path d="M1230 1634 c-14 -7 -38 -19 -55 -26 -38 -17 -42 -57 -6 -74 l23 -12
-22 -12 c-12 -6 -28 -9 -36 -6 -8 3 -14 2 -14 -2 0 -9 110 -65 116 -59 3 2 -2
10 -11 17 -8 7 -15 24 -15 38 0 25 0 25 21 6 29 -26 55 -8 52 37 -3 52 -14
109 -22 108 -3 0 -17 -7 -31 -15z"/>
<path d="M1381 1210 c-21 -18 -74 -43 -130 -61 -52 -18 -105 -42 -118 -55 -48
-48 -41 -114 15 -147 27 -16 39 -18 73 -9 40 10 40 10 26 -11 -8 -12 -29 -33
-48 -45 -29 -21 -43 -23 -96 -19 -35 3 -63 2 -63 -2 0 -8 286 -151 301 -151 7
0 -7 20 -29 44 -44 47 -59 93 -47 145 7 32 25 43 25 15 0 -25 56 -74 84 -74
60 0 101 42 99 104 -1 18 -15 75 -33 126 -24 70 -30 103 -26 132 3 21 5 38 4
38 -2 -1 -18 -14 -37 -30z"/>
<path d="M1353 582 c9 -10 17 -29 17 -42 0 -22 -1 -22 -19 -6 -16 14 -23 15
-41 6 -18 -10 -21 -18 -16 -43 3 -18 9 -49 12 -69 7 -42 7 -42 32 -28 9 5 34
16 55 24 20 8 40 23 44 32 9 23 -10 49 -36 48 -19 -1 -20 1 -7 14 8 8 29 15
47 14 41 -1 29 10 -45 42 -49 22 -57 23 -43 8z"/>
<path d="M862 1648 c-7 -7 -12 -18 -12 -26 0 -8 -6 -12 -14 -9 -7 3 -23 -1
-35 -9 -44 -31 -12 -90 43 -80 l31 6 -24 -20 c-13 -11 -33 -20 -45 -21 -22 -1
31 -20 94 -34 l35 -7 -27 22 c-16 12 -28 30 -28 41 0 19 1 18 20 -1 24 -24 43
-25 64 -4 22 22 20 61 -4 74 -11 6 -20 21 -20 33 0 29 -18 47 -45 47 -12 0
-26 -5 -33 -12z"/>
<path d="M503 1571 l-41 -48 29 -44 c16 -24 31 -48 33 -54 3 -10 85 73 86 87
0 3 -15 29 -33 56 l-33 51 -41 -48z"/>
<path d="M230 1422 c-19 -15 -29 -17 -51 -9 -20 8 -31 7 -43 -2 -28 -24 -17
-54 43 -117 l58 -61 32 74 c35 83 36 99 5 120 -19 12 -24 11 -44 -5z"/>
</g>
</svg>
