<?xml version="1.0" standalone="no"?>
<!DOCTYPE svg PUBLIC "-//W3C//DTD SVG 20010904//EN"
 "http://www.w3.org/TR/2001/REC-SVG-20010904/DTD/svg10.dtd">
<svg version="1.0" xmlns="http://www.w3.org/2000/svg"
 width="256.000000pt" height="256.000000pt" viewBox="0 0 256.000000 256.000000"
 preserveAspectRatio="xMidYMid meet">
<metadata>
Created by potrace 1.14, written by Peter Selinger 2001-2017
</metadata>
<g transform="translate(0.000000,256.000000) scale(0.100000,-0.100000)"
fill="#000000" stroke="none">
<path d="M995 2547 c-11 -7 -49 -42 -84 -79 l-64 -68 60 0 c58 0 61 1 92 40
17 22 39 40 48 40 8 0 33 -18 55 -40 l40 -40 250 0 249 0 -7 23 c-12 39 -41
92 -62 110 -11 10 -38 21 -60 24 -34 5 -60 -4 -166 -53 l-127 -58 -37 36 c-66
62 -93 78 -131 78 -20 -1 -45 -6 -56 -13z"/>
<path d="M639 2297 c-18 -12 -44 -38 -56 -56 l-23 -34 0 -887 0 -887 23 -34
c12 -18 38 -44 56 -56 l34 -23 607 0 607 0 34 23 c18 12 44 38 56 56 l23 34 0
887 0 887 -23 34 c-12 18 -38 44 -56 56 l-34 23 -607 0 -607 0 -34 -23z m254
-164 c21 -60 53 -150 72 -200 l33 -93 -33 0 c-32 0 -34 2 -55 65 l-22 66 -71
-3 -71 -3 -20 -62 c-19 -60 -21 -63 -52 -63 l-33 0 23 63 c13 34 45 124 72
200 l49 137 35 0 35 0 38 -107z m406 -430 c19 -42 88 -136 190 -258 106 -127
131 -173 131 -239 0 -55 -18 -94 -60 -129 -61 -51 -142 -48 -208 9 l-42 36 0
-37 c0 -49 23 -100 62 -135 l32 -30 -124 0 -124 0 37 38 c38 39 57 84 57 135
l0 29 -42 -36 c-66 -57 -147 -60 -208 -9 -42 35 -60 74 -60 129 0 66 26 114
132 240 100 121 170 215 189 257 7 15 15 27 19 27 4 0 12 -12 19 -27z m351
-968 l22 -66 71 3 71 3 20 63 c19 59 21 62 52 62 l33 0 -23 -62 c-13 -35 -45
-125 -72 -200 l-49 -138 -35 0 -35 0 -38 108 c-21 59 -53 149 -72 200 l-33 92
33 0 c32 0 34 -2 55 -65z"/>
<path d="M788 2089 l-26 -79 54 0 c30 0 54 4 54 10 0 9 -48 142 -53 146 -1 1
-14 -34 -29 -77z"/>
<path d="M1690 621 c0 -6 12 -42 27 -82 l26 -72 13 39 c6 21 19 58 27 82 l16
42 -54 0 c-30 0 -55 -4 -55 -9z"/>
<path d="M335 2042 c-153 -70 -171 -82 -191 -128 -15 -36 -6 -80 31 -154 l23
-46 -96 -104 -97 -103 0 -55 0 -54 200 -194 c110 -107 217 -208 238 -225 l37
-31 0 55 0 54 -200 193 c-110 105 -200 197 -200 203 1 7 35 50 78 95 l77 84
120 -261 120 -262 3 251 c1 137 1 362 0 498 l-3 248 -140 -64z"/>
<path d="M2080 1557 l0 -54 200 -193 c110 -105 200 -197 200 -203 -1 -7 -35
-50 -78 -95 l-77 -84 -114 249 c-63 136 -118 255 -122 263 -5 8 -9 -211 -9
-487 l0 -501 143 65 c155 71 173 83 193 129 15 36 6 80 -31 155 l-23 45 96
104 97 104 0 54 0 54 -200 194 c-110 107 -217 208 -237 225 l-38 31 0 -55z"/>
<path d="M880 236 c0 -17 92 -195 108 -209 44 -40 89 -34 226 29 l127 58 37
-36 c66 -62 93 -78 131 -78 50 1 62 10 176 130 l100 105 -55 3 -55 4 -76 -82
c-60 -64 -81 -81 -96 -76 -25 8 -81 67 -68 72 6 3 48 22 95 44 l85 40 -367 0
c-203 0 -368 -2 -368 -4z"/>
</g>
</svg>
